<svg xmlns="http://www.w3.org/2000/svg" width="195" height="59" viewBox="0 0 195 59">
  <g id="组_3" data-name="组 3" transform="translate(-105 -2927)">
    <text id="英佶立智能科技股份有限公司" transform="translate(105 2982)" fill="#fff" font-size="15" font-family="SourceHanSerifSC-Bold, Source Han Serif SC" font-weight="700"><tspan x="0" y="0">英佶立智能科技股份有限公司</tspan></text>
    <g id="组_2" data-name="组 2" transform="translate(106 2927)">
      <path id="路径_1" data-name="路径 1" d="M-92.566-235.52h-21.028V-266.2h21.028v6.139h-14.889v6.14h10.076v6.14h-10.076v6.118h14.889Z" transform="translate(113.594 269.355)" fill="#fff"/>
      <path id="路径_2" data-name="路径 2" d="M200.062-235.52H178.584V-266.2h6.14v24.537h15.339Z" transform="translate(-114.47 269.355)" fill="#fff"/>
      <path id="路径_3" data-name="路径 3" d="M280.706-224.828h-6.118v-22.083h-9.22v-5.525H289.9v5.525h-9.2Z" transform="translate(-182.21 258.615)" fill="#fff"/>
      <path id="路径_4" data-name="路径 4" d="M413.032-224.828H392v-27.609h21.028v5.525H398.144v5.526H408.22v5.526H398.144v5.506h14.889Z" transform="translate(-281.058 258.615)" fill="#fff"/>
      <path id="路径_5" data-name="路径 5" d="M522.575-229.028a16.078,16.078,0,0,1-4.791,2.541,17.258,17.258,0,0,1-5.5.885,17.132,17.132,0,0,1-4.2-.51,16.893,16.893,0,0,1-3.786-1.444,15.914,15.914,0,0,1-3.22-2.243,14.706,14.706,0,0,1-2.493-2.9,13.566,13.566,0,0,1-1.6-3.408,12.625,12.625,0,0,1-.567-3.783,12.721,12.721,0,0,1,.567-3.793,13.543,13.543,0,0,1,1.6-3.417,14.73,14.73,0,0,1,2.493-2.9,15.939,15.939,0,0,1,3.22-2.243,16.936,16.936,0,0,1,3.786-1.444,17.12,17.12,0,0,1,4.2-.51,17.43,17.43,0,0,1,5.5.876,15.69,15.69,0,0,1,4.791,2.551l-3.251,4.813a9.265,9.265,0,0,0-3.187-2.012,10.7,10.7,0,0,0-3.851-.7,10.37,10.37,0,0,0-3.808.693,10.135,10.135,0,0,0-3.1,1.877,8.8,8.8,0,0,0-2.1,2.792,7.808,7.808,0,0,0-.771,3.417,7.682,7.682,0,0,0,.771,3.4,8.979,8.979,0,0,0,2.1,2.782,10.033,10.033,0,0,0,3.1,1.887,10.38,10.38,0,0,0,3.808.693,10.7,10.7,0,0,0,3.851-.7,9.263,9.263,0,0,0,3.187-2.012Z" transform="translate(-362.556 259.985)" fill="#fff"/>
      <g id="组_1" data-name="组 1" transform="translate(22.974 0)">
        <path id="路径_6" data-name="路径 6" d="M21.222-248.036l-3.228-3.228a14.511,14.511,0,0,1-3.429,1.974,14.584,14.584,0,0,1-5.979,1.064A14.584,14.584,0,0,1-1.3-252.507a14.661,14.661,0,0,1,0-20.71,14.661,14.661,0,0,1,20.71,0l-3.956,3.956a9.06,9.06,0,0,0-12.8,0,9.06,9.06,0,0,0,0,12.8,9.008,9.008,0,0,0,6.108,2.645,8.994,8.994,0,0,0,3.7-.657,8.9,8.9,0,0,0,1.524-.8l-3.159-3.159a1.179,1.179,0,0,1,.834-2.013H22.056a1.179,1.179,0,0,1,1.179,1.179v10.394c0,.014,0,.028,0,.042l5.773-21.544a2.617,2.617,0,0,0-1.851-3.206L1.321-280.5a2.617,2.617,0,0,0-3.206,1.851l-6.922,25.834a2.618,2.618,0,0,0,1.851,3.206l25.834,6.922a2.617,2.617,0,0,0,3.206-1.851l1.009-3.764A1.181,1.181,0,0,1,21.222-248.036Z" transform="translate(8.897 280.59)" fill="#fff"/>
        <path id="路径_7" data-name="路径 7" d="M136.88-135.32a1.162,1.162,0,0,0,.141-.526Z" transform="translate(-104.891 167.608)" fill="#fff"/>
      </g>
    </g>
  </g>
</svg>
