<svg xmlns="http://www.w3.org/2000/svg" viewBox="0 0 111.67189 128"><defs><style>.a{fill:#f5c82e;}</style></defs><path class="a" d="M106.84569,32.2598h-4.8183V55.5195h4.8183a4.82749,4.82749,0,0,0,4.8262-4.8242V37.0859A4.82661,4.82661,0,0,0,106.84569,32.2598Z"/><path class="a" d="M106.84569,88.082h-4.8183v23.2598h4.8183a4.82749,4.82749,0,0,0,4.8262-4.8242V92.9082A4.8267,4.8267,0,0,0,106.84569,88.082Z"/><path class="a" d="M106.84569,60.1719h-4.8183V83.4297h4.8183a4.82627,4.82627,0,0,0,4.8262-4.8242V64.9961A4.82749,4.82749,0,0,0,106.84569,60.1719Z"/><path class="a" d="M83.73439,23.2109h-7.2031V62.4766a3.28829,3.28829,0,0,1-5.2969,2.6113l-9.7969-7.5371-9.7949,7.5371a3.28965,3.28965,0,0,1-5.2969-2.6113V23.2109H15.78319a7.42965,7.42965,0,0,1,0-14.8593h66.5039a4.1758,4.1758,0,0,0,0-8.3516H15.78319A15.78406,15.78406,0,0,0,0,15.7793V117.6895A10.31062,10.31062,0,0,0,10.31059,128h73.4238a14.2053,14.2053,0,0,0,14.209-14.2051V37.416A14.20536,14.20536,0,0,0,83.73439,23.2109Z"/></svg>